<svg width="404" height="404" viewBox="0 0 404 404" fill="none" xmlns="http://www.w3.org/2000/svg">
<path d="M17.3593 10.5734C14.0453 11.6781 11.0468 15.0238 10.3525 18.4009C8.99528 24.9028 15.4972 31.4047 21.999 30.0475C26.8912 29.0375 30.6787 24.0506 30.2053 19.3478C29.8581 16.0338 27.3647 12.625 24.2084 11.0784C22.2831 10.1631 19.3162 9.94219 17.3593 10.5734Z" fill="#35215E"/>
<path d="M57.7594 10.5734C52.9935 12.1515 49.7741 17.3909 50.7525 21.999C51.5416 25.755 55.045 29.2584 58.7694 30.0475C64.8925 31.3415 71.2366 25.5656 70.6053 19.3478C70.2581 16.0337 67.7647 12.625 64.6085 11.0784C62.6831 10.1631 59.7163 9.94216 57.7594 10.5734Z" fill="#35215E"/>
<path d="M98.1594 10.5734C94.8453 11.6781 91.8469 15.0238 91.1525 18.4009C89.7953 24.9028 96.2972 31.4047 102.799 30.0475C107.691 29.0375 111.479 24.0506 111.005 19.3478C110.658 16.0338 108.165 12.625 105.008 11.0784C103.083 10.1631 100.116 9.94219 98.1594 10.5734Z" fill="#35215E"/>
<path d="M138.559 10.5734C135.245 11.6781 132.247 15.0238 131.552 18.4009C130.195 24.9028 136.697 31.4047 143.199 30.0475C148.091 29.0375 151.879 24.0506 151.405 19.3478C151.058 16.0338 148.565 12.625 145.408 11.0784C143.483 10.1631 140.516 9.94219 138.559 10.5734Z" fill="#35215E"/>
<path d="M178.959 10.5734C175.645 11.6781 172.647 15.0238 171.952 18.4009C170.595 24.9028 177.097 31.4047 183.599 30.0475C188.491 29.0375 192.279 24.0506 191.805 19.3478C191.458 16.0338 188.965 12.625 185.808 11.0784C183.883 10.1631 180.916 9.94219 178.959 10.5734Z" fill="#35215E"/>
<path d="M219.359 10.5734C216.045 11.6781 213.047 15.0238 212.352 18.4009C210.995 24.9028 217.497 31.4047 223.999 30.0475C228.891 29.0375 232.679 24.0506 232.205 19.3478C231.858 16.0338 229.365 12.625 226.208 11.0784C224.283 10.1631 221.316 9.94219 219.359 10.5734Z" fill="#35215E"/>
<path d="M259.759 10.5734C256.445 11.6781 253.447 15.0238 252.752 18.4009C251.395 24.9028 257.897 31.4047 264.399 30.0475C269.291 29.0375 273.079 24.0506 272.605 19.3478C272.258 16.0338 269.765 12.625 266.608 11.0784C264.683 10.1631 261.716 9.94219 259.759 10.5734Z" fill="#35215E"/>
<path d="M300.159 10.5734C296.845 11.6781 293.847 15.0238 293.152 18.4009C291.795 24.9028 298.297 31.4047 304.799 30.0475C309.691 29.0375 313.479 24.0506 313.005 19.3478C312.658 16.0338 310.165 12.625 307.008 11.0784C305.083 10.1631 302.116 9.94219 300.159 10.5734Z" fill="#35215E"/>
<path d="M340.559 10.5734C337.245 11.6781 334.247 15.0237 333.552 18.4009C332.763 22.0937 334.562 26.1022 338.034 28.4694C341.412 30.805 345.262 30.8366 348.671 28.5641C354.257 24.8397 355.015 17.8959 350.344 13.2562C347.661 10.5419 343.81 9.50031 340.559 10.5734Z" fill="#35215E"/>
<path d="M380.959 10.5734C377.645 11.6781 374.647 15.0237 373.952 18.4009C373.163 22.0937 374.962 26.1022 378.434 28.4694C381.812 30.805 385.662 30.8366 389.071 28.5641C394.657 24.8397 395.415 17.8959 390.744 13.2562C388.061 10.5419 384.21 9.50031 380.959 10.5734Z" fill="#35215E"/>
<path d="M17.3593 50.9735C14.0453 52.0781 11.0468 55.4238 10.3525 58.801C8.99528 65.3028 15.4972 71.8047 21.999 70.4475C26.8912 69.4375 30.6787 64.4506 30.2053 59.7478C29.8581 56.4338 27.3647 53.025 24.2084 51.4785C22.2831 50.5631 19.3162 50.3422 17.3593 50.9735Z" fill="#35215E"/>
<path d="M57.7594 50.9734C52.9935 52.5516 49.7741 57.7909 50.7525 62.3991C51.5416 66.155 55.045 69.6584 58.7694 70.4475C64.8925 71.7416 71.2366 65.9656 70.6053 59.7478C70.2581 56.4338 67.7647 53.025 64.6085 51.4784C62.6831 50.5631 59.7163 50.3422 57.7594 50.9734Z" fill="#35215E"/>
<path d="M98.1594 50.9735C94.8453 52.0781 91.8469 55.4238 91.1525 58.801C89.7953 65.3028 96.2972 71.8047 102.799 70.4475C107.691 69.4375 111.479 64.4506 111.005 59.7478C110.658 56.4338 108.165 53.025 105.008 51.4785C103.083 50.5631 100.116 50.3422 98.1594 50.9735Z" fill="#35215E"/>
<path d="M138.559 50.9735C135.245 52.0781 132.247 55.4238 131.552 58.801C130.195 65.3028 136.697 71.8047 143.199 70.4475C148.091 69.4375 151.879 64.4506 151.405 59.7478C151.058 56.4338 148.565 53.025 145.408 51.4785C143.483 50.5631 140.516 50.3422 138.559 50.9735Z" fill="#35215E"/>
<path d="M178.959 50.9735C175.645 52.0781 172.647 55.4238 171.952 58.801C170.595 65.3028 177.097 71.8047 183.599 70.4475C188.491 69.4375 192.279 64.4506 191.805 59.7478C191.458 56.4338 188.965 53.025 185.808 51.4785C183.883 50.5631 180.916 50.3422 178.959 50.9735Z" fill="#35215E"/>
<path d="M219.359 50.9735C216.045 52.0781 213.047 55.4238 212.352 58.801C210.995 65.3028 217.497 71.8047 223.999 70.4475C228.891 69.4375 232.679 64.4506 232.205 59.7478C231.858 56.4338 229.365 53.025 226.208 51.4785C224.283 50.5631 221.316 50.3422 219.359 50.9735Z" fill="#35215E"/>
<path d="M259.759 50.9735C256.445 52.0781 253.447 55.4238 252.752 58.801C251.395 65.3028 257.897 71.8047 264.399 70.4475C269.291 69.4375 273.079 64.4506 272.605 59.7478C272.258 56.4338 269.765 53.025 266.608 51.4785C264.683 50.5631 261.716 50.3422 259.759 50.9735Z" fill="#35215E"/>
<path d="M300.159 50.9735C296.845 52.0781 293.847 55.4238 293.152 58.801C291.795 65.3028 298.297 71.8047 304.799 70.4475C309.691 69.4375 313.479 64.4506 313.005 59.7478C312.658 56.4338 310.165 53.025 307.008 51.4785C305.083 50.5631 302.116 50.3422 300.159 50.9735Z" fill="#35215E"/>
<path d="M340.559 50.9734C337.245 52.0781 334.247 55.4237 333.552 58.8009C332.763 62.4937 334.562 66.5022 338.034 68.8694C341.412 71.205 345.262 71.2366 348.671 68.9641C354.257 65.2397 355.015 58.2959 350.344 53.6562C347.661 50.9419 343.81 49.9003 340.559 50.9734Z" fill="#35215E"/>
<path d="M380.959 50.9734C377.645 52.0781 374.647 55.4237 373.952 58.8009C373.163 62.4937 374.962 66.5022 378.434 68.8694C381.812 71.205 385.662 71.2366 389.071 68.9641C394.657 65.2397 395.415 58.2959 390.744 53.6562C388.061 50.9419 384.21 49.9003 380.959 50.9734Z" fill="#35215E"/>
<path d="M17.3593 91.3734C14.0453 92.4781 11.0468 95.8237 10.3525 99.2009C8.99528 105.703 15.4972 112.205 21.999 110.847C26.8912 109.837 30.6787 104.851 30.2053 100.148C29.8581 96.8337 27.3647 93.425 24.2084 91.8784C22.2831 90.9631 19.3162 90.7422 17.3593 91.3734Z" fill="#35215E"/>
<path d="M57.7594 91.3734C54.4453 92.4781 51.4469 95.8237 50.7525 99.2009C49.3953 105.703 55.8972 112.205 62.3991 110.847C67.2912 109.837 71.0787 104.851 70.6053 100.148C70.2581 96.8337 67.7647 93.425 64.6084 91.8784C62.6831 90.9631 59.7162 90.7422 57.7594 91.3734Z" fill="#35215E"/>
<path d="M98.1594 91.3734C94.8453 92.4781 91.8469 95.8237 91.1525 99.2009C89.7953 105.703 96.2972 112.205 102.799 110.847C107.691 109.837 111.479 104.851 111.005 100.148C110.658 96.8337 108.165 93.425 105.008 91.8784C103.083 90.9631 100.116 90.7422 98.1594 91.3734Z" fill="#35215E"/>
<path d="M138.559 91.3734C135.245 92.4781 132.247 95.8237 131.552 99.2009C130.195 105.703 136.697 112.205 143.199 110.847C148.091 109.837 151.879 104.851 151.405 100.148C151.058 96.8337 148.565 93.425 145.408 91.8784C143.483 90.9631 140.516 90.7422 138.559 91.3734Z" fill="#35215E"/>
<path d="M178.959 91.3734C175.645 92.4781 172.647 95.8237 171.952 99.2009C170.595 105.703 177.097 112.205 183.599 110.847C188.491 109.837 192.279 104.851 191.805 100.148C191.458 96.8337 188.965 93.425 185.808 91.8784C183.883 90.9631 180.916 90.7422 178.959 91.3734Z" fill="#35215E"/>
<path d="M219.359 91.3734C216.045 92.4781 213.047 95.8237 212.352 99.2009C210.995 105.703 217.497 112.205 223.999 110.847C228.891 109.837 232.679 104.851 232.205 100.148C231.858 96.8337 229.365 93.425 226.208 91.8784C224.283 90.9631 221.316 90.7422 219.359 91.3734Z" fill="#35215E"/>
<path d="M259.759 91.3734C256.445 92.4781 253.447 95.8237 252.752 99.2009C251.395 105.703 257.897 112.205 264.399 110.847C269.291 109.837 273.079 104.851 272.605 100.148C272.258 96.8337 269.765 93.425 266.608 91.8784C264.683 90.9631 261.716 90.7422 259.759 91.3734Z" fill="#35215E"/>
<path d="M300.159 91.3734C296.845 92.4781 293.847 95.8237 293.152 99.2009C291.795 105.703 298.297 112.205 304.799 110.847C309.691 109.837 313.479 104.851 313.005 100.148C312.658 96.8337 310.165 93.425 307.008 91.8784C305.083 90.9631 302.116 90.7422 300.159 91.3734Z" fill="#35215E"/>
<path d="M340.559 91.3734C337.245 92.4781 334.247 95.8237 333.552 99.2009C332.195 105.703 338.697 112.205 345.199 110.847C350.091 109.837 353.879 104.851 353.405 100.148C353.058 96.8337 350.565 93.425 347.408 91.8784C345.483 90.9631 342.516 90.7422 340.559 91.3734Z" fill="#35215E"/>
<path d="M380.959 91.3734C377.645 92.4781 374.647 95.8237 373.952 99.2009C372.595 105.703 379.097 112.205 385.599 110.847C390.491 109.837 394.279 104.851 393.805 100.148C393.458 96.8337 390.965 93.425 387.808 91.8784C385.883 90.9631 382.916 90.7422 380.959 91.3734Z" fill="#35215E"/>
<path d="M17.3593 131.773C14.0453 132.878 11.0468 136.224 10.3525 139.601C8.99528 146.103 15.4972 152.605 21.999 151.247C26.8912 150.237 30.6787 145.251 30.2053 140.548C29.8581 137.234 27.3647 133.825 24.2084 132.278C22.2831 131.363 19.3162 131.142 17.3593 131.773Z" fill="#35215E"/>
<path d="M57.7594 131.773C54.4453 132.878 51.4469 136.224 50.7525 139.601C49.3953 146.103 55.8972 152.605 62.3991 151.247C67.2912 150.237 71.0787 145.251 70.6053 140.548C70.2581 137.234 67.7647 133.825 64.6084 132.278C62.6831 131.363 59.7162 131.142 57.7594 131.773Z" fill="#35215E"/>
<path d="M98.1594 131.773C94.8453 132.878 91.8469 136.224 91.1525 139.601C89.7953 146.103 96.2972 152.605 102.799 151.247C107.691 150.237 111.479 145.251 111.005 140.548C110.658 137.234 108.165 133.825 105.008 132.278C103.083 131.363 100.116 131.142 98.1594 131.773Z" fill="#35215E"/>
<path d="M138.559 131.773C135.245 132.878 132.247 136.224 131.552 139.601C130.195 146.103 136.697 152.605 143.199 151.247C148.091 150.237 151.879 145.251 151.405 140.548C151.058 137.234 148.565 133.825 145.408 132.278C143.483 131.363 140.516 131.142 138.559 131.773Z" fill="#35215E"/>
<path d="M178.959 131.773C175.645 132.878 172.647 136.224 171.952 139.601C170.595 146.103 177.097 152.605 183.599 151.247C188.491 150.237 192.279 145.251 191.805 140.548C191.458 137.234 188.965 133.825 185.808 132.278C183.883 131.363 180.916 131.142 178.959 131.773Z" fill="#35215E"/>
<path d="M219.359 131.773C216.045 132.878 213.047 136.224 212.352 139.601C210.995 146.103 217.497 152.605 223.999 151.247C228.891 150.237 232.679 145.251 232.205 140.548C231.858 137.234 229.365 133.825 226.208 132.278C224.283 131.363 221.316 131.142 219.359 131.773Z" fill="#35215E"/>
<path d="M259.759 131.773C256.445 132.878 253.447 136.224 252.752 139.601C251.395 146.103 257.897 152.605 264.399 151.247C269.291 150.237 273.079 145.251 272.605 140.548C272.258 137.234 269.765 133.825 266.608 132.278C264.683 131.363 261.716 131.142 259.759 131.773Z" fill="#35215E"/>
<path d="M300.159 131.773C296.845 132.878 293.847 136.224 293.152 139.601C291.795 146.103 298.297 152.605 304.799 151.247C309.691 150.237 313.479 145.251 313.005 140.548C312.658 137.234 310.165 133.825 307.008 132.278C305.083 131.363 302.116 131.142 300.159 131.773Z" fill="#35215E"/>
<path d="M340.559 131.773C337.245 132.878 334.247 136.224 333.552 139.601C332.195 146.103 338.697 152.605 345.199 151.247C350.091 150.237 353.879 145.251 353.405 140.548C353.058 137.234 350.565 133.825 347.408 132.278C345.483 131.363 342.516 131.142 340.559 131.773Z" fill="#35215E"/>
<path d="M380.959 131.773C377.645 132.878 374.647 136.224 373.952 139.601C372.595 146.103 379.097 152.605 385.599 151.247C390.491 150.237 394.279 145.251 393.805 140.548C393.458 137.234 390.965 133.825 387.808 132.278C385.883 131.363 382.916 131.142 380.959 131.773Z" fill="#35215E"/>
<path d="M17.3593 172.173C14.0453 173.278 11.0468 176.624 10.3525 180.001C8.99528 186.503 15.4972 193.005 21.999 191.647C26.8912 190.637 30.6787 185.651 30.2053 180.948C29.8581 177.634 27.3647 174.225 24.2084 172.678C22.2831 171.763 19.3162 171.542 17.3593 172.173Z" fill="#35215E"/>
<path d="M57.7594 172.173C54.4453 173.278 51.4469 176.624 50.7525 180.001C49.3953 186.503 55.8972 193.005 62.3991 191.647C67.2912 190.637 71.0787 185.651 70.6053 180.948C70.2581 177.634 67.7647 174.225 64.6084 172.678C62.6831 171.763 59.7162 171.542 57.7594 172.173Z" fill="#35215E"/>
<path d="M98.1594 172.173C94.8453 173.278 91.8469 176.624 91.1525 180.001C89.7953 186.503 96.2972 193.005 102.799 191.647C107.691 190.637 111.479 185.651 111.005 180.948C110.658 177.634 108.165 174.225 105.008 172.678C103.083 171.763 100.116 171.542 98.1594 172.173Z" fill="#35215E"/>
<path d="M138.559 172.173C135.245 173.278 132.247 176.624 131.552 180.001C130.195 186.503 136.697 193.005 143.199 191.647C148.091 190.637 151.879 185.651 151.405 180.948C151.058 177.634 148.565 174.225 145.408 172.678C143.483 171.763 140.516 171.542 138.559 172.173Z" fill="#35215E"/>
<path d="M178.959 172.173C175.645 173.278 172.647 176.624 171.952 180.001C170.595 186.503 177.097 193.005 183.599 191.647C188.491 190.637 192.279 185.651 191.805 180.948C191.458 177.634 188.965 174.225 185.808 172.678C183.883 171.763 180.916 171.542 178.959 172.173Z" fill="#35215E"/>
<path d="M219.359 172.173C216.045 173.278 213.047 176.624 212.352 180.001C210.995 186.503 217.497 193.005 223.999 191.647C228.891 190.637 232.679 185.651 232.205 180.948C231.858 177.634 229.365 174.225 226.208 172.678C224.283 171.763 221.316 171.542 219.359 172.173Z" fill="#35215E"/>
<path d="M259.759 172.173C256.445 173.278 253.447 176.624 252.752 180.001C251.395 186.503 257.897 193.005 264.399 191.647C269.291 190.637 273.079 185.651 272.605 180.948C272.258 177.634 269.765 174.225 266.608 172.678C264.683 171.763 261.716 171.542 259.759 172.173Z" fill="#35215E"/>
<path d="M300.159 172.173C296.845 173.278 293.847 176.624 293.152 180.001C291.795 186.503 298.297 193.005 304.799 191.647C309.691 190.637 313.479 185.651 313.005 180.948C312.658 177.634 310.165 174.225 307.008 172.678C305.083 171.763 302.116 171.542 300.159 172.173Z" fill="#35215E"/>
<path d="M340.559 172.173C337.245 173.278 334.247 176.624 333.552 180.001C332.195 186.503 338.697 193.005 345.199 191.647C350.091 190.637 353.879 185.651 353.405 180.948C353.058 177.634 350.565 174.225 347.408 172.678C345.483 171.763 342.516 171.542 340.559 172.173Z" fill="#35215E"/>
<path d="M380.959 172.173C377.645 173.278 374.647 176.624 373.952 180.001C372.595 186.503 379.097 193.005 385.599 191.647C390.491 190.637 394.279 185.651 393.805 180.948C393.458 177.634 390.965 174.225 387.808 172.678C385.883 171.763 382.916 171.542 380.959 172.173Z" fill="#35215E"/>
<path d="M17.3593 212.573C14.0453 213.678 11.0468 217.024 10.3525 220.401C8.99528 226.903 15.4972 233.405 21.999 232.047C26.8912 231.037 30.6787 226.051 30.2053 221.348C29.8581 218.034 27.3647 214.625 24.2084 213.078C22.2831 212.163 19.3162 211.942 17.3593 212.573Z" fill="#35215E"/>
<path d="M57.7594 212.573C54.4453 213.678 51.4469 217.024 50.7525 220.401C49.3953 226.903 55.8972 233.405 62.3991 232.047C67.2912 231.037 71.0787 226.051 70.6053 221.348C70.2581 218.034 67.7647 214.625 64.6084 213.078C62.6831 212.163 59.7162 211.942 57.7594 212.573Z" fill="#35215E"/>
<path d="M98.1594 212.573C94.8453 213.678 91.8469 217.024 91.1525 220.401C89.7953 226.903 96.2972 233.405 102.799 232.047C107.691 231.037 111.479 226.051 111.005 221.348C110.658 218.034 108.165 214.625 105.008 213.078C103.083 212.163 100.116 211.942 98.1594 212.573Z" fill="#35215E"/>
<path d="M138.559 212.573C135.245 213.678 132.247 217.024 131.552 220.401C130.195 226.903 136.697 233.405 143.199 232.047C148.091 231.037 151.879 226.051 151.405 221.348C151.058 218.034 148.565 214.625 145.408 213.078C143.483 212.163 140.516 211.942 138.559 212.573Z" fill="#35215E"/>
<path d="M178.959 212.573C175.645 213.678 172.647 217.024 171.952 220.401C170.595 226.903 177.097 233.405 183.599 232.047C188.491 231.037 192.279 226.051 191.805 221.348C191.458 218.034 188.965 214.625 185.808 213.078C183.883 212.163 180.916 211.942 178.959 212.573Z" fill="#35215E"/>
<path d="M219.359 212.573C216.045 213.678 213.047 217.024 212.352 220.401C210.995 226.903 217.497 233.405 223.999 232.047C228.891 231.037 232.679 226.051 232.205 221.348C231.858 218.034 229.365 214.625 226.208 213.078C224.283 212.163 221.316 211.942 219.359 212.573Z" fill="#35215E"/>
<path d="M259.759 212.573C256.445 213.678 253.447 217.024 252.752 220.401C251.395 226.903 257.897 233.405 264.399 232.047C269.291 231.037 273.079 226.051 272.605 221.348C272.258 218.034 269.765 214.625 266.608 213.078C264.683 212.163 261.716 211.942 259.759 212.573Z" fill="#35215E"/>
<path d="M300.159 212.573C296.845 213.678 293.847 217.024 293.152 220.401C291.795 226.903 298.297 233.405 304.799 232.047C309.691 231.037 313.479 226.051 313.005 221.348C312.658 218.034 310.165 214.625 307.008 213.078C305.083 212.163 302.116 211.942 300.159 212.573Z" fill="#35215E"/>
<path d="M340.559 212.573C337.245 213.678 334.247 217.024 333.552 220.401C332.195 226.903 338.697 233.405 345.199 232.047C350.091 231.037 353.879 226.051 353.405 221.348C353.058 218.034 350.565 214.625 347.408 213.078C345.483 212.163 342.516 211.942 340.559 212.573Z" fill="#35215E"/>
<path d="M380.959 212.573C377.645 213.678 374.647 217.024 373.952 220.401C372.595 226.903 379.097 233.405 385.599 232.047C390.491 231.037 394.279 226.051 393.805 221.348C393.458 218.034 390.965 214.625 387.808 213.078C385.883 212.163 382.916 211.942 380.959 212.573Z" fill="#35215E"/>
<path d="M17.3593 252.973C14.0453 254.078 11.0468 257.424 10.3525 260.801C8.99528 267.303 15.4972 273.805 21.999 272.447C26.8912 271.437 30.6787 266.451 30.2053 261.748C29.8581 258.434 27.3647 255.025 24.2084 253.478C22.2831 252.563 19.3162 252.342 17.3593 252.973Z" fill="#35215E"/>
<path d="M57.7594 252.973C54.4453 254.078 51.4469 257.424 50.7525 260.801C49.3953 267.303 55.8972 273.805 62.3991 272.447C67.2912 271.437 71.0787 266.451 70.6053 261.748C70.2581 258.434 67.7647 255.025 64.6084 253.478C62.6831 252.563 59.7162 252.342 57.7594 252.973Z" fill="#35215E"/>
<path d="M98.1593 252.973C94.8452 254.078 91.8468 257.424 91.1524 260.801C90.3634 264.494 92.1624 268.502 95.6343 270.869C99.0115 273.205 102.862 273.237 106.271 270.964C111.857 267.24 112.615 260.296 107.944 255.656C105.261 252.942 101.41 251.9 98.1593 252.973Z" fill="#35215E"/>
<path d="M138.559 252.973C135.245 254.078 132.247 257.424 131.552 260.801C130.763 264.494 132.562 268.502 136.034 270.869C139.412 273.205 143.262 273.237 146.671 270.964C152.257 267.24 153.015 260.296 148.344 255.656C145.661 252.942 141.81 251.9 138.559 252.973Z" fill="#35215E"/>
<path d="M178.959 252.973C174.193 254.552 170.974 259.791 171.952 264.399C172.742 268.155 176.245 271.658 180.001 272.448C186.092 273.742 192.437 267.966 191.805 261.748C191.458 258.434 188.965 255.025 185.808 253.478C183.883 252.563 180.916 252.342 178.959 252.973Z" fill="#35215E"/>
<path d="M219.359 252.973C214.593 254.552 211.374 259.791 212.352 264.399C213.142 268.155 216.645 271.658 220.401 272.448C226.492 273.742 232.837 267.966 232.205 261.748C231.858 258.434 229.365 255.025 226.208 253.478C224.283 252.563 221.316 252.342 219.359 252.973Z" fill="#35215E"/>
<path d="M259.759 252.973C254.993 254.552 251.774 259.791 252.753 264.399C253.542 268.155 257.045 271.658 260.801 272.448C266.893 273.742 273.237 267.966 272.605 261.748C272.258 258.434 269.765 255.025 266.608 253.478C264.683 252.563 261.716 252.342 259.759 252.973Z" fill="#35215E"/>
<path d="M300.159 252.973C295.393 254.552 292.174 259.791 293.153 264.399C293.942 268.155 297.445 271.658 301.201 272.448C307.293 273.742 313.637 267.966 313.005 261.748C312.658 258.434 310.165 255.025 307.008 253.478C305.083 252.563 302.116 252.342 300.159 252.973Z" fill="#35215E"/>
<path d="M340.559 252.973C337.245 254.078 334.247 257.424 333.552 260.801C332.195 267.303 338.697 273.805 345.199 272.447C350.091 271.437 353.879 266.451 353.405 261.748C353.058 258.434 350.565 255.025 347.408 253.478C345.483 252.563 342.516 252.342 340.559 252.973Z" fill="#35215E"/>
<path d="M380.959 252.973C377.645 254.078 374.647 257.424 373.952 260.801C372.595 267.303 379.097 273.805 385.599 272.447C390.491 271.437 394.279 266.451 393.805 261.748C393.458 258.434 390.965 255.025 387.808 253.478C385.883 252.563 382.916 252.342 380.959 252.973Z" fill="#35215E"/>
<path d="M17.3593 293.373C14.0453 294.478 11.0468 297.824 10.3525 301.201C8.99528 307.703 15.4972 314.205 21.999 312.848C26.8912 311.838 30.6787 306.851 30.2053 302.148C29.8581 298.834 27.3647 295.425 24.2084 293.878C22.2831 292.963 19.3162 292.742 17.3593 293.373Z" fill="#35215E"/>
<path d="M57.7594 293.373C54.4453 294.478 51.4469 297.824 50.7525 301.201C49.3953 307.703 55.8972 314.205 62.3991 312.848C67.2912 311.838 71.0787 306.851 70.6053 302.148C70.2581 298.834 67.7647 295.425 64.6084 293.878C62.6831 292.963 59.7162 292.742 57.7594 293.373Z" fill="#35215E"/>
<path d="M98.1593 293.373C94.8452 294.478 91.8468 297.824 91.1524 301.201C90.3634 304.894 92.1624 308.902 95.6343 311.269C99.0115 313.605 102.862 313.637 106.271 311.364C111.857 307.64 112.615 300.696 107.944 296.056C105.261 293.342 101.41 292.3 98.1593 293.373Z" fill="#35215E"/>
<path d="M138.559 293.373C135.245 294.478 132.247 297.824 131.552 301.201C130.763 304.894 132.562 308.902 136.034 311.269C139.412 313.605 143.262 313.637 146.671 311.364C152.257 307.64 153.015 300.696 148.344 296.056C145.661 293.342 141.81 292.3 138.559 293.373Z" fill="#35215E"/>
<path d="M178.959 293.373C174.193 294.952 170.974 300.191 171.952 304.799C172.742 308.555 176.245 312.058 180.001 312.848C186.092 314.142 192.437 308.366 191.805 302.148C191.458 298.834 188.965 295.425 185.808 293.878C183.883 292.963 180.916 292.742 178.959 293.373Z" fill="#35215E"/>
<path d="M219.359 293.373C214.593 294.952 211.374 300.191 212.352 304.799C213.142 308.555 216.645 312.058 220.401 312.848C226.492 314.142 232.837 308.366 232.205 302.148C231.858 298.834 229.365 295.425 226.208 293.878C224.283 292.963 221.316 292.742 219.359 293.373Z" fill="#35215E"/>
<path d="M259.759 293.373C254.993 294.952 251.774 300.191 252.753 304.799C253.542 308.555 257.045 312.058 260.801 312.848C266.893 314.142 273.237 308.366 272.605 302.148C272.258 298.834 269.765 295.425 266.608 293.878C264.683 292.963 261.716 292.742 259.759 293.373Z" fill="#35215E"/>
<path d="M300.159 293.373C295.393 294.952 292.174 300.191 293.153 304.799C293.942 308.555 297.445 312.058 301.201 312.848C307.293 314.142 313.637 308.366 313.005 302.148C312.658 298.834 310.165 295.425 307.008 293.878C305.083 292.963 302.116 292.742 300.159 293.373Z" fill="#35215E"/>
<path d="M340.559 293.373C337.245 294.478 334.247 297.824 333.552 301.201C332.195 307.703 338.697 314.205 345.199 312.848C350.091 311.838 353.879 306.851 353.405 302.148C353.058 298.834 350.565 295.425 347.408 293.878C345.483 292.963 342.516 292.742 340.559 293.373Z" fill="#35215E"/>
<path d="M380.959 293.373C377.645 294.478 374.647 297.824 373.952 301.201C372.595 307.703 379.097 314.205 385.599 312.848C390.491 311.838 394.279 306.851 393.805 302.148C393.458 298.834 390.965 295.425 387.808 293.878C385.883 292.963 382.916 292.742 380.959 293.373Z" fill="#35215E"/>
<path d="M17.3593 333.773C14.0453 334.878 11.0468 338.224 10.3525 341.601C8.99528 348.103 15.4972 354.605 21.999 353.247C26.8912 352.237 30.6787 347.251 30.2053 342.548C29.8581 339.234 27.3647 335.825 24.2084 334.278C22.2831 333.363 19.3162 333.142 17.3593 333.773Z" fill="#35215E"/>
<path d="M57.7594 333.773C54.4453 334.878 51.4469 338.224 50.7525 341.601C49.3953 348.103 55.8972 354.605 62.3991 353.247C67.2912 352.237 71.0787 347.251 70.6053 342.548C70.2581 339.234 67.7647 335.825 64.6084 334.278C62.6831 333.363 59.7162 333.142 57.7594 333.773Z" fill="#35215E"/>
<path d="M98.1593 333.773C94.8452 334.878 91.8468 338.224 91.1524 341.601C90.3634 345.294 92.1624 349.302 95.6343 351.669C99.0115 354.005 102.862 354.037 106.271 351.764C111.857 348.04 112.615 341.096 107.944 336.456C105.261 333.742 101.41 332.7 98.1593 333.773Z" fill="#35215E"/>
<path d="M138.559 333.773C135.245 334.878 132.247 338.224 131.552 341.601C130.763 345.294 132.562 349.302 136.034 351.669C139.412 354.005 143.262 354.037 146.671 351.764C152.257 348.04 153.015 341.096 148.344 336.456C145.661 333.742 141.81 332.7 138.559 333.773Z" fill="#35215E"/>
<path d="M178.959 333.773C175.645 334.878 172.647 338.224 171.952 341.601C170.595 348.103 177.097 354.605 183.599 353.247C188.491 352.237 192.279 347.251 191.805 342.548C191.458 339.234 188.965 335.825 185.808 334.278C183.883 333.363 180.916 333.142 178.959 333.773Z" fill="#35215E"/>
<path d="M219.359 333.773C216.045 334.878 213.047 338.224 212.352 341.601C210.995 348.103 217.497 354.605 223.999 353.247C228.891 352.237 232.679 347.251 232.205 342.548C231.858 339.234 229.365 335.825 226.208 334.278C224.283 333.363 221.316 333.142 219.359 333.773Z" fill="#35215E"/>
<path d="M259.759 333.773C256.445 334.878 253.447 338.224 252.752 341.601C251.395 348.103 257.897 354.605 264.399 353.247C269.291 352.237 273.079 347.251 272.605 342.548C272.258 339.234 269.765 335.825 266.608 334.278C264.683 333.363 261.716 333.142 259.759 333.773Z" fill="#35215E"/>
<path d="M300.159 333.773C296.845 334.878 293.847 338.224 293.152 341.601C291.795 348.103 298.297 354.605 304.799 353.247C309.691 352.237 313.479 347.251 313.005 342.548C312.658 339.234 310.165 335.825 307.008 334.278C305.083 333.363 302.116 333.142 300.159 333.773Z" fill="#35215E"/>
<path d="M340.559 333.773C337.245 334.878 334.247 338.224 333.552 341.601C332.195 348.103 338.697 354.605 345.199 353.247C350.091 352.237 353.879 347.251 353.405 342.548C353.058 339.234 350.565 335.825 347.408 334.278C345.483 333.363 342.516 333.142 340.559 333.773Z" fill="#35215E"/>
<path d="M380.959 333.773C377.645 334.878 374.647 338.224 373.952 341.601C372.595 348.103 379.097 354.605 385.599 353.247C390.491 352.237 394.279 347.251 393.805 342.548C393.458 339.234 390.965 335.825 387.808 334.278C385.883 333.363 382.916 333.142 380.959 333.773Z" fill="#35215E"/>
<path d="M17.3593 374.173C14.0453 375.278 11.0468 378.624 10.3525 382.001C8.99528 388.503 15.4972 395.005 21.999 393.648C26.8912 392.638 30.6787 387.651 30.2053 382.948C29.8581 379.634 27.3647 376.225 24.2084 374.678C22.2831 373.763 19.3162 373.542 17.3593 374.173Z" fill="#35215E"/>
<path d="M57.7594 374.173C54.4453 375.278 51.4469 378.624 50.7525 382.001C49.3953 388.503 55.8972 395.005 62.3991 393.647C67.2912 392.637 71.0787 387.651 70.6053 382.948C70.2581 379.634 67.7647 376.225 64.6084 374.678C62.6831 373.763 59.7162 373.542 57.7594 374.173Z" fill="#35215E"/>
<path d="M98.1594 374.173C94.8453 375.278 91.8469 378.624 91.1525 382.001C89.7953 388.503 96.2972 395.005 102.799 393.647C107.691 392.637 111.479 387.651 111.005 382.948C110.658 379.634 108.165 376.225 105.008 374.678C103.083 373.763 100.116 373.542 98.1594 374.173Z" fill="#35215E"/>
<path d="M138.559 374.173C135.245 375.278 132.247 378.624 131.552 382.001C130.195 388.503 136.697 395.005 143.199 393.647C148.091 392.637 151.879 387.651 151.405 382.948C151.058 379.634 148.565 376.225 145.408 374.678C143.483 373.763 140.516 373.542 138.559 374.173Z" fill="#35215E"/>
<path d="M178.959 374.173C175.645 375.278 172.647 378.624 171.952 382.001C170.595 388.503 177.097 395.005 183.599 393.647C188.491 392.637 192.279 387.651 191.805 382.948C191.458 379.634 188.965 376.225 185.808 374.678C183.883 373.763 180.916 373.542 178.959 374.173Z" fill="#35215E"/>
<path d="M219.359 374.173C216.045 375.278 213.047 378.624 212.352 382.001C210.995 388.503 217.497 395.005 223.999 393.647C228.891 392.637 232.679 387.651 232.205 382.948C231.858 379.634 229.365 376.225 226.208 374.678C224.283 373.763 221.316 373.542 219.359 374.173Z" fill="#35215E"/>
<path d="M259.759 374.173C256.445 375.278 253.447 378.624 252.752 382.001C251.395 388.503 257.897 395.005 264.399 393.647C269.291 392.637 273.079 387.651 272.605 382.948C272.258 379.634 269.765 376.225 266.608 374.678C264.683 373.763 261.716 373.542 259.759 374.173Z" fill="#35215E"/>
<path d="M300.159 374.173C296.845 375.278 293.847 378.624 293.152 382.001C291.795 388.503 298.297 395.005 304.799 393.647C309.691 392.637 313.479 387.651 313.005 382.948C312.658 379.634 310.165 376.225 307.008 374.678C305.083 373.763 302.116 373.542 300.159 374.173Z" fill="#35215E"/>
<path d="M340.559 374.173C337.245 375.278 334.247 378.624 333.552 382.001C332.195 388.503 338.697 395.005 345.199 393.647C350.091 392.637 353.879 387.651 353.405 382.948C353.058 379.634 350.565 376.225 347.408 374.678C345.483 373.763 342.516 373.542 340.559 374.173Z" fill="#35215E"/>
<path d="M380.959 374.173C377.645 375.278 374.647 378.624 373.952 382.001C372.595 388.503 379.097 395.005 385.599 393.647C390.491 392.637 394.279 387.651 393.805 382.948C393.458 379.634 390.965 376.225 387.808 374.678C385.883 373.763 382.916 373.542 380.959 374.173Z" fill="#35215E"/>
</svg>
