<svg width="2080" height="1200" viewBox="0 0 1045 598" fill="none" xmlns="http://www.w3.org/2000/svg">
<mask id="mask0_10_1415" style="mask-type:alpha" maskUnits="userSpaceOnUse" x="0" y="0" width="1045" height="598">
<g style="mix-blend-mode:darken">
<path d="M32.4948 455.395C-14.3732 431.245 2.54678 411.235 19.1328 407.305C38.0068 401.515 71.8598 422.345 134.762 435.445C197.664 448.535 186.011 386.175 301.636 386.175C451.696 391.285 498.606 456.215 533.556 359.225C568.496 262.235 693.886 142.155 755.046 112.655C810.036 82.3053 863.996 20.5753 972.426 3.69534C1029.12 -5.12466 1034.88 21.5954 1042.68 57.7254L1042.84 58.4353C1039.41 183.075 1013.54 441.985 937.486 480.455C842.406 528.545 592.136 589.925 500.146 595.045C426.556 599.135 385.916 587.205 318.226 548.495C276.456 515.595 263.855 496.415 212.876 480.455C149.151 460.505 91.0798 485.575 32.4948 455.395Z" fill="#18134F"/>
<path d="M32.4948 455.395C-14.3732 431.245 2.54678 411.235 19.1328 407.305C38.0068 401.515 71.8598 422.345 134.762 435.445C197.664 448.535 186.011 386.175 301.636 386.175C451.696 391.285 498.606 456.215 533.556 359.225C568.496 262.235 693.886 142.155 755.046 112.655C810.036 82.3053 863.996 20.5753 972.426 3.69534C1029.12 -5.12466 1034.88 21.5954 1042.68 57.7254L1042.84 58.4353C1039.41 183.075 1013.54 441.985 937.486 480.455C842.406 528.545 592.136 589.925 500.146 595.045C426.556 599.135 385.916 587.205 318.226 548.495C276.456 515.595 263.855 496.415 212.876 480.455C149.151 460.505 91.0798 485.575 32.4948 455.395Z" stroke="#191543" stroke-width="3"/>
</g>
</mask>
<g mask="url(#mask0_10_1415)">
<path d="M1142.72 477.115L60.0607 704.915L-43.0803 214.705L1039.58 -13.0947L1142.72 477.115Z" fill="url(#paint0_linear_10_1415)"/>
<mask id="mask1_10_1415" style="mask-type:luminance" maskUnits="userSpaceOnUse" x="210" y="2" width="499" height="470">
<path d="M219.442 423.365C208.279 433.825 207.731 451.355 218.194 462.505C228.66 473.665 246.183 474.215 257.341 463.735C268.495 453.285 719.166 13.3753 708.696 2.22532C708.476 1.99532 708.086 1.94529 707.506 2.07529C679.466 8.00529 230.361 413.105 219.442 423.365Z" fill="white"/>
</mask>
<g mask="url(#mask1_10_1415)">
<mask id="mask2_10_1415" style="mask-type:luminance" maskUnits="userSpaceOnUse" x="-387596" y="-383624" width="773676" height="773676">
<path d="M-387596 -249134L251590 -383623L386079 255562L-253107 390052L-387596 -249134Z" fill="url(#paint1_linear_10_1415)"/>
</mask>
<g mask="url(#mask2_10_1415)">
<path d="M219.373 423.259C208.21 433.719 207.661 451.249 218.125 462.399C228.591 473.559 246.113 474.109 257.272 463.639C268.425 453.179 719.095 13.2794 708.625 2.12937C708.405 1.89937 708.015 1.84934 707.435 1.96934C679.395 7.89934 230.291 412.999 219.373 423.259Z" fill="url(#paint2_linear_10_1415)"/>
</g>
</g>
<mask id="mask3_10_1415" style="mask-type:luminance" maskUnits="userSpaceOnUse" x="-10" y="-23" width="247" height="232">
<path d="M-5.10744 185.015C-10.6094 190.185 -10.8814 198.825 -5.72041 204.325C-0.571413 209.825 8.07356 210.095 13.5776 204.935C19.0716 199.775 241.243 -17.0748 236.084 -22.5748C235.978 -22.6948 235.78 -22.7147 235.497 -22.6547C221.669 -19.7347 0.277563 179.975 -5.10744 185.015Z" fill="white"/>
</mask>
<g mask="url(#mask3_10_1415)">
<mask id="mask4_10_1415" style="mask-type:luminance" maskUnits="userSpaceOnUse" x="-387449" y="-383934" width="773676" height="773676">
<path d="M-387449 -249444L251737 -383933L386226 255253L-252960 389742L-387449 -249444Z" fill="url(#paint3_linear_10_1415)"/>
</mask>
<g mask="url(#mask4_10_1415)">
<path d="M-5.12602 185.046C-10.628 190.216 -10.899 198.847 -5.73802 204.357C-0.589021 209.847 8.05598 210.126 13.559 204.966C19.054 199.806 241.223 -17.0535 236.064 -22.5435C235.958 -22.6635 235.76 -22.6835 235.477 -22.6235C221.649 -19.7035 0.259978 179.996 -5.12602 185.046Z" fill="url(#paint4_linear_10_1415)"/>
</g>
</g>
<mask id="mask5_10_1415" style="mask-type:luminance" maskUnits="userSpaceOnUse" x="75" y="244" width="535" height="504">
<path d="M84.9516 696.035C73.0026 707.255 72.4096 726.025 83.6226 737.975C94.8356 749.925 113.621 750.525 125.562 739.315C137.511 728.095 620.436 256.725 609.226 244.775C608.996 244.525 608.566 244.475 607.946 244.605C577.906 250.955 96.6646 685.045 84.9516 696.035Z" fill="white"/>
</mask>
<g mask="url(#mask5_10_1415)">
<mask id="mask6_10_1415" style="mask-type:luminance" maskUnits="userSpaceOnUse" x="-387449" y="-383934" width="773676" height="773676">
<path d="M-387449 -249444L251737 -383933L386226 255253L-252960 389742L-387449 -249444Z" fill="url(#paint5_linear_10_1415)"/>
</mask>
<g mask="url(#mask6_10_1415)">
<path d="M84.896 695.927C72.947 707.157 72.3551 725.927 83.5671 737.877C94.7801 749.827 113.566 750.427 125.507 739.217C137.456 727.997 620.373 256.627 609.163 244.677C608.943 244.427 608.513 244.377 607.883 244.507C577.843 250.857 96.609 684.937 84.896 695.927Z" fill="url(#paint6_linear_10_1415)"/>
</g>
</g>
<mask id="mask7_10_1415" style="mask-type:luminance" maskUnits="userSpaceOnUse" x="860" y="-33" width="494" height="473">
<path d="M869.426 388.505C857.466 399.715 856.876 418.515 868.086 430.455C879.316 442.415 898.096 443.015 910.046 431.785C919.716 422.705 1238.26 111.845 1353.11 -12.4047L1348.99 -32.0146C1223.79 68.4554 879.316 379.245 869.426 388.505Z" fill="white"/>
</mask>
<g mask="url(#mask7_10_1415)">
<mask id="mask8_10_1415" style="mask-type:luminance" maskUnits="userSpaceOnUse" x="-387449" y="-383934" width="773676" height="773676">
<path d="M-387449 -249444L251737 -383933L386226 255253L-252960 389742L-387449 -249444Z" fill="url(#paint7_linear_10_1415)"/>
</mask>
<g mask="url(#mask8_10_1415)">
<path d="M869.405 388.583C857.445 399.793 856.855 418.592 868.065 430.532C879.295 442.492 898.075 443.093 910.025 431.863C919.695 422.783 1238.24 111.932 1353.09 -12.3275L1348.97 -31.9375C1223.77 68.5325 879.295 379.323 869.405 388.583Z" fill="url(#paint8_linear_10_1415)"/>
</g>
</g>
<path d="M365.046 506.875C368.416 522.885 384.116 533.125 400.126 529.765C416.126 526.395 426.376 510.685 423.006 494.685C419.636 478.675 403.936 468.435 387.926 471.805C371.926 475.165 361.686 490.875 365.046 506.875Z" fill="url(#paint9_linear_10_1415)"/>
<path d="M334.716 454.815C336.649 454.815 338.216 453.248 338.216 451.315C338.216 449.382 336.649 447.815 334.716 447.815C332.783 447.815 331.216 449.382 331.216 451.315C331.216 453.248 332.783 454.815 334.716 454.815Z" fill="#FEF2C8"/>
<path d="M334.716 454.815C336.649 454.815 338.216 453.248 338.216 451.315C338.216 449.382 336.649 447.815 334.716 447.815C332.783 447.815 331.216 449.382 331.216 451.315C331.216 453.248 332.783 454.815 334.716 454.815Z" fill="#FEF2C8"/>
<path d="M334.716 454.815C336.649 454.815 338.216 453.248 338.216 451.315C338.216 449.382 336.649 447.815 334.716 447.815C332.783 447.815 331.216 449.382 331.216 451.315C331.216 453.248 332.783 454.815 334.716 454.815Z" fill="#FEF2C8"/>
<path d="M1029.72 91.8153C1031.65 91.8153 1033.22 90.2483 1033.22 88.3153C1033.22 86.3823 1031.65 84.8153 1029.72 84.8153C1027.78 84.8153 1026.22 86.3823 1026.22 88.3153C1026.22 90.2483 1027.78 91.8153 1029.72 91.8153Z" fill="#FEF2C8"/>
<path d="M1029.72 91.8153C1031.65 91.8153 1033.22 90.2483 1033.22 88.3153C1033.22 86.3823 1031.65 84.8153 1029.72 84.8153C1027.78 84.8153 1026.22 86.3823 1026.22 88.3153C1026.22 90.2483 1027.78 91.8153 1029.72 91.8153Z" fill="#FEF2C8"/>
<path d="M1029.72 91.8153C1031.65 91.8153 1033.22 90.2483 1033.22 88.3153C1033.22 86.3823 1031.65 84.8153 1029.72 84.8153C1027.78 84.8153 1026.22 86.3823 1026.22 88.3153C1026.22 90.2483 1027.78 91.8153 1029.72 91.8153Z" fill="#FEF2C8"/>
<path d="M947.716 370.815C949.649 370.815 951.216 369.248 951.216 367.315C951.216 365.382 949.649 363.815 947.716 363.815C945.783 363.815 944.216 365.382 944.216 367.315C944.216 369.248 945.783 370.815 947.716 370.815Z" fill="#FEF2C8"/>
<path d="M947.716 370.815C949.649 370.815 951.216 369.248 951.216 367.315C951.216 365.382 949.649 363.815 947.716 363.815C945.783 363.815 944.216 365.382 944.216 367.315C944.216 369.248 945.783 370.815 947.716 370.815Z" fill="#FEF2C8"/>
<path d="M947.716 370.815C949.649 370.815 951.216 369.248 951.216 367.315C951.216 365.382 949.649 363.815 947.716 363.815C945.783 363.815 944.216 365.382 944.216 367.315C944.216 369.248 945.783 370.815 947.716 370.815Z" fill="#FEF2C8"/>
<path d="M597.216 516.315C597.216 518.245 595.646 519.815 593.716 519.815C591.786 519.815 590.216 518.245 590.216 516.315C590.216 514.385 591.786 512.815 593.716 512.815C595.646 512.815 597.216 514.385 597.216 516.315Z" fill="#FEF2C8"/>
<path d="M597.216 516.315C597.216 518.245 595.646 519.815 593.716 519.815C591.786 519.815 590.216 518.245 590.216 516.315C590.216 514.385 591.786 512.815 593.716 512.815C595.646 512.815 597.216 514.385 597.216 516.315Z" fill="#FEF2C8"/>
<path d="M597.216 516.315C597.216 518.245 595.646 519.815 593.716 519.815C591.786 519.815 590.216 518.245 590.216 516.315C590.216 514.385 591.786 512.815 593.716 512.815C595.646 512.815 597.216 514.385 597.216 516.315Z" fill="#FEF2C8"/>
<path d="M856.716 509.815C858.649 509.815 860.216 508.248 860.216 506.315C860.216 504.382 858.649 502.815 856.716 502.815C854.783 502.815 853.216 504.382 853.216 506.315C853.216 508.248 854.783 509.815 856.716 509.815Z" fill="#FEF2C8"/>
<path d="M856.716 509.815C858.649 509.815 860.216 508.248 860.216 506.315C860.216 504.382 858.649 502.815 856.716 502.815C854.783 502.815 853.216 504.382 853.216 506.315C853.216 508.248 854.783 509.815 856.716 509.815Z" fill="#FEF2C8"/>
<path d="M856.716 509.815C858.649 509.815 860.216 508.248 860.216 506.315C860.216 504.382 858.649 502.815 856.716 502.815C854.783 502.815 853.216 504.382 853.216 506.315C853.216 508.248 854.783 509.815 856.716 509.815Z" fill="#FEF2C8"/>
<path d="M39.7157 423.815C41.6487 423.815 43.2157 422.248 43.2157 420.315C43.2157 418.382 41.6487 416.815 39.7157 416.815C37.7827 416.815 36.2157 418.382 36.2157 420.315C36.2157 422.248 37.7827 423.815 39.7157 423.815Z" fill="#FEF2C8"/>
<path d="M39.7157 423.815C41.6487 423.815 43.2157 422.248 43.2157 420.315C43.2157 418.382 41.6487 416.815 39.7157 416.815C37.7827 416.815 36.2157 418.382 36.2157 420.315C36.2157 422.248 37.7827 423.815 39.7157 423.815Z" fill="#FEF2C8"/>
<path d="M39.7157 423.815C41.6487 423.815 43.2157 422.248 43.2157 420.315C43.2157 418.382 41.6487 416.815 39.7157 416.815C37.7827 416.815 36.2157 418.382 36.2157 420.315C36.2157 422.248 37.7827 423.815 39.7157 423.815Z" fill="#FEF2C8"/>
<path d="M82.7157 456.815C83.5441 456.815 84.2157 456.144 84.2157 455.315C84.2157 454.487 83.5441 453.815 82.7157 453.815C81.8873 453.815 81.2157 454.487 81.2157 455.315C81.2157 456.144 81.8873 456.815 82.7157 456.815Z" fill="#FEF2C8"/>
<path d="M82.7157 456.815C83.5441 456.815 84.2157 456.144 84.2157 455.315C84.2157 454.487 83.5441 453.815 82.7157 453.815C81.8873 453.815 81.2157 454.487 81.2157 455.315C81.2157 456.144 81.8873 456.815 82.7157 456.815Z" fill="#FEF2C8"/>
<path d="M82.7157 456.815C83.5441 456.815 84.2157 456.144 84.2157 455.315C84.2157 454.487 83.5441 453.815 82.7157 453.815C81.8873 453.815 81.2157 454.487 81.2157 455.315C81.2157 456.144 81.8873 456.815 82.7157 456.815Z" fill="#FEF2C8"/>
</g>
<defs>
<linearGradient id="paint0_linear_10_1415" x1="-9.5443" y1="621.135" x2="121.596" y2="-122.635" gradientUnits="userSpaceOnUse">
<stop stop-color="#0029AD"/>
<stop offset="0.96459" stop-color="#071937"/>
<stop offset="1" stop-color="#071937"/>
</linearGradient>
<linearGradient id="paint1_linear_10_1415" x1="449.078" y1="558.99" x2="468.198" y2="-42.4795" gradientUnits="userSpaceOnUse">
<stop stop-color="white"/>
<stop offset="0.528824" stop-color="white" stop-opacity="0"/>
<stop offset="1" stop-color="white" stop-opacity="0"/>
</linearGradient>
<linearGradient id="paint2_linear_10_1415" x1="449.025" y1="558.959" x2="468.155" y2="-42.5106" gradientUnits="userSpaceOnUse">
<stop stop-color="#EC2DB1"/>
<stop offset="0.528824" stop-color="#EC2DB1"/>
<stop offset="1" stop-color="#EC2DB1"/>
</linearGradient>
<linearGradient id="paint3_linear_10_1415" x1="108.078" y1="251.912" x2="117.505" y2="-44.5984" gradientUnits="userSpaceOnUse">
<stop stop-color="white"/>
<stop offset="0.528824" stop-color="white" stop-opacity="0"/>
<stop offset="1" stop-color="white" stop-opacity="0"/>
</linearGradient>
<linearGradient id="paint4_linear_10_1415" x1="108.089" y1="251.956" x2="117.516" y2="-44.5635" gradientUnits="userSpaceOnUse">
<stop stop-color="#67A0FF"/>
<stop offset="0.528824" stop-color="#67A0FF"/>
<stop offset="1" stop-color="#67A0FF"/>
</linearGradient>
<linearGradient id="paint5_linear_10_1415" x1="330.977" y1="841.38" x2="351.467" y2="196.87" gradientUnits="userSpaceOnUse">
<stop stop-color="white"/>
<stop offset="0.528824" stop-color="white" stop-opacity="0"/>
<stop offset="1" stop-color="white" stop-opacity="0"/>
</linearGradient>
<linearGradient id="paint6_linear_10_1415" x1="330.993" y1="841.347" x2="351.483" y2="196.837" gradientUnits="userSpaceOnUse">
<stop stop-color="#EC2DB1"/>
<stop offset="0.528824" stop-color="#EC2DB1"/>
<stop offset="1" stop-color="#EC2DB1"/>
</linearGradient>
<linearGradient id="paint7_linear_10_1415" x1="1115.46" y1="533.966" x2="1135.95" y2="-110.544" gradientUnits="userSpaceOnUse">
<stop stop-color="white"/>
<stop offset="0.528824" stop-color="white" stop-opacity="0"/>
<stop offset="1" stop-color="white" stop-opacity="0"/>
</linearGradient>
<linearGradient id="paint8_linear_10_1415" x1="1115.51" y1="533.993" x2="1136" y2="-110.508" gradientUnits="userSpaceOnUse">
<stop stop-color="#67A0FF"/>
<stop offset="0.528824" stop-color="#67A0FF"/>
<stop offset="1" stop-color="#67A0FF"/>
</linearGradient>
<linearGradient id="paint9_linear_10_1415" x1="372.426" y1="533.895" x2="412.666" y2="472.205" gradientUnits="userSpaceOnUse">
<stop stop-color="#072A5A"/>
<stop offset="0.471176" stop-color="#072A5A"/>
<stop offset="1" stop-color="#63A1FF"/>
</linearGradient>
</defs>
</svg>
