<svg width="34" height="34" viewBox="0 0 34 34" fill="currentColor" xmlns="http://www.w3.org/2000/svg">
<path d="M16.85 0.0500488C7.57155 0.0500488 0.0500488 7.57155 0.0500488 16.85C0.0500488 26.1286 7.57155 33.6501 16.85 33.6501C26.1286 33.6501 33.6501 26.1286 33.6501 16.85C33.6501 7.57155 26.1286 0.0500488 16.85 0.0500488ZM12.7375 23.8116H9.33555V12.8671H12.7375V23.8116ZM11.0155 11.523C9.94105 11.523 9.24455 10.76 9.24455 9.81855C9.24455 8.85605 9.95855 8.11755 11.0576 8.11755C12.1566 8.11755 12.8286 8.85605 12.8496 9.81855C12.8531 10.7635 12.1565 11.523 11.0155 11.523ZM25.1591 23.8116H21.7571V17.746C21.7571 16.3356 21.2636 15.373 20.0316 15.373C19.0936 15.373 18.5336 16.0241 18.2851 16.6471C18.1941 16.8676 18.173 17.1826 18.173 17.4976V23.8081H14.7676V16.3531C14.7676 14.9881 14.7256 13.8436 14.6765 12.8601H17.6306L17.788 14.3791H17.8546C18.3026 13.6651 19.4016 12.6116 21.2355 12.6116C23.4721 12.6116 25.1521 14.1096 25.1521 17.333V23.8116H25.1591Z" fill="currentColor"/>
</svg>
